<svg xmlns="http://www.w3.org/2000/svg" xmlns:xlink="http://www.w3.org/1999/xlink" viewBox="0 0 273 118"><defs><style>.cls-1{isolation:isolate;}.cls-2{fill:#ccc;}.cls-10,.cls-11,.cls-12,.cls-13,.cls-14,.cls-3,.cls-4,.cls-5,.cls-6,.cls-7,.cls-8,.cls-9{stroke:#000;stroke-miterlimit:10;}.cls-3{mix-blend-mode:darken;fill:url(#linear-gradient);}.cls-4{fill:url(#linear-gradient-2);}.cls-5{fill:url(#linear-gradient-3);}.cls-6{fill:url(#linear-gradient-4);}.cls-7{fill:url(#linear-gradient-5);}.cls-8{fill:url(#linear-gradient-6);}.cls-9{fill:url(#linear-gradient-7);}.cls-10{fill:url(#linear-gradient-8);}.cls-11{fill:url(#linear-gradient-9);}.cls-12{fill:url(#linear-gradient-10);}.cls-13{fill:url(#linear-gradient-11);}.cls-14{fill:url(#linear-gradient-12);}.cls-15{font-size:14px;font-family:RobotoCondensed-Bold, Roboto Condensed;font-weight:700;}.cls-16{letter-spacing:-0.03em;}.cls-17{letter-spacing:-0.1em;}.cls-18{letter-spacing:-0.01em;}</style><linearGradient id="linear-gradient" x1="132.34" y1="12.97" x2="132.34" y2="32.97" gradientUnits="userSpaceOnUse"><stop offset="0" stop-color="#f2f7f2"/><stop offset="0" stop-color="#fff"/><stop offset="0.54" stop-color="#060"/><stop offset="1" stop-color="#0d6e0d"/><stop offset="1"/></linearGradient><linearGradient id="linear-gradient-2" x1="169.02" y1="12.97" x2="169.02" y2="32.97" gradientUnits="userSpaceOnUse"><stop offset="0.45" stop-color="#fff"/><stop offset="0.52" stop-color="#fbfbfb"/><stop offset="0.6" stop-color="#f0f0f0"/><stop offset="0.66" stop-color="#dedede"/><stop offset="0.73" stop-color="#c4c4c4"/><stop offset="0.79" stop-color="#a2a2a2"/><stop offset="0.86" stop-color="#797979"/><stop offset="0.92" stop-color="#484848"/><stop offset="0.98" stop-color="#111"/><stop offset="1"/></linearGradient><linearGradient id="linear-gradient-3" x1="205.71" y1="12.97" x2="205.71" y2="32.97" xlink:href="#linear-gradient-2"/><linearGradient id="linear-gradient-4" x1="242.39" y1="12.97" x2="242.39" y2="32.97" xlink:href="#linear-gradient-2"/><linearGradient id="linear-gradient-5" x1="132.34" y1="47.97" x2="132.34" y2="67.97" xlink:href="#linear-gradient"/><linearGradient id="linear-gradient-6" x1="169.02" y1="47.97" x2="169.02" y2="67.97" xlink:href="#linear-gradient"/><linearGradient id="linear-gradient-7" x1="205.71" y1="47.97" x2="205.71" y2="67.97" xlink:href="#linear-gradient-2"/><linearGradient id="linear-gradient-8" x1="242.39" y1="47.97" x2="242.39" y2="67.97" xlink:href="#linear-gradient-2"/><linearGradient id="linear-gradient-9" x1="132.34" y1="83.97" x2="132.34" y2="103.97" xlink:href="#linear-gradient"/><linearGradient id="linear-gradient-10" x1="169.02" y1="83.97" x2="169.02" y2="103.97" xlink:href="#linear-gradient-2"/><linearGradient id="linear-gradient-11" x1="205.71" y1="83.97" x2="205.71" y2="103.97" xlink:href="#linear-gradient-2"/><linearGradient id="linear-gradient-12" x1="242.39" y1="82.97" x2="242.39" y2="102.97" xlink:href="#linear-gradient-2"/></defs><title>bermuda_graph1</title><g class="cls-1"><g id="Background"><rect class="cls-2" width="273" height="118" rx="12" ry="12"/></g><g id="Bermuda"><rect class="cls-3" x="114" y="12.97" width="36.68" height="20" rx="10" ry="10"/><rect class="cls-4" x="150.68" y="12.97" width="36.68" height="20" rx="10" ry="10"/><rect class="cls-5" x="187.37" y="12.97" width="36.68" height="20" rx="10" ry="10"/><rect class="cls-6" x="224.05" y="12.97" width="36.68" height="20" rx="10" ry="10"/><rect class="cls-7" x="114" y="47.97" width="36.68" height="20" rx="10" ry="10"/><rect class="cls-8" x="150.68" y="47.97" width="36.68" height="20" rx="10" ry="10"/><rect class="cls-9" x="187.37" y="47.97" width="36.68" height="20" rx="10" ry="10"/><rect class="cls-10" x="224.05" y="47.97" width="36.68" height="20" rx="10" ry="10"/><rect class="cls-11" x="114" y="83.97" width="36.68" height="20" rx="10" ry="10"/><rect class="cls-12" x="150.68" y="83.97" width="36.68" height="20" rx="10" ry="10"/><rect class="cls-13" x="187.37" y="83.97" width="36.68" height="20" rx="10" ry="10"/><rect class="cls-14" x="224.05" y="82.97" width="36.68" height="20" rx="10" ry="10"/></g><g id="Words"><text class="cls-15" transform="translate(12 96.97) scale(1.03 1)">Initial Cost</text><text class="cls-15" transform="translate(12 62) scale(1.03 1)">Maintenance</text><text class="cls-15" transform="translate(12 27.97) scale(1.03 1)">Shade<tspan class="cls-16" x="34.68" y="0"> </tspan><tspan class="cls-17" x="37.5" y="0">T</tspan><tspan x="43.67" y="0">ole</tspan><tspan class="cls-18" x="60.87" y="0">r</tspan><tspan x="65.3" y="0">ance</tspan></text></g></g></svg>