<svg xmlns="http://www.w3.org/2000/svg" xmlns:xlink="http://www.w3.org/1999/xlink" viewBox="0 0 273 117.37"><defs><style>.cls-1{isolation:isolate;}.cls-2{fill:#ccc;}.cls-10,.cls-11,.cls-12,.cls-13,.cls-14,.cls-15,.cls-16,.cls-17,.cls-18,.cls-3,.cls-4,.cls-5,.cls-6,.cls-7,.cls-8,.cls-9{stroke:#000;stroke-miterlimit:10;}.cls-3{fill:url(#New_Gradient_Swatch_2);}.cls-4{fill:url(#New_Gradient_Swatch_2-2);}.cls-5{fill:url(#New_Gradient_Swatch_3);}.cls-6{fill:url(#New_Gradient_Swatch_3-2);}.cls-7{mix-blend-mode:darken;fill:url(#New_Gradient_Swatch_2-3);}.cls-8{fill:url(#New_Gradient_Swatch_2-4);}.cls-9{fill:url(#New_Gradient_Swatch_2-5);}.cls-10{fill:url(#New_Gradient_Swatch_2-6);}.cls-11{fill:url(#New_Gradient_Swatch_2-7);}.cls-12{fill:url(#New_Gradient_Swatch_2-8);}.cls-13{fill:url(#New_Gradient_Swatch_2-9);}.cls-14{fill:url(#New_Gradient_Swatch_2-10);}.cls-15{fill:url(#New_Gradient_Swatch_2-11);}.cls-16{fill:url(#New_Gradient_Swatch_2-12);}.cls-17{fill:url(#New_Gradient_Swatch_3-3);}.cls-18{fill:url(#New_Gradient_Swatch_3-4);}.cls-19{font-size:14px;font-family:RobotoCondensed-Bold, Roboto Condensed;font-weight:700;}.cls-20{letter-spacing:-0.01em;}.cls-21{letter-spacing:-0.03em;}.cls-22{letter-spacing:-0.1em;}</style><linearGradient id="New_Gradient_Swatch_2" x1="132.81" y1="88.31" x2="132.81" y2="108.31" gradientUnits="userSpaceOnUse"><stop offset="0" stop-color="#f2f7f2"/><stop offset="0" stop-color="#fff"/><stop offset="0.54" stop-color="#060"/><stop offset="1" stop-color="#0d6e0d"/><stop offset="1"/></linearGradient><linearGradient id="New_Gradient_Swatch_2-2" x1="169.49" y1="88.31" x2="169.49" y2="108.31" xlink:href="#New_Gradient_Swatch_2"/><linearGradient id="New_Gradient_Swatch_3" x1="206.17" y1="88.31" x2="206.17" y2="108.31" gradientUnits="userSpaceOnUse"><stop offset="0.45" stop-color="#fff"/><stop offset="0.52" stop-color="#fbfbfb"/><stop offset="0.6" stop-color="#f0f0f0"/><stop offset="0.66" stop-color="#dedede"/><stop offset="0.73" stop-color="#c4c4c4"/><stop offset="0.79" stop-color="#a2a2a2"/><stop offset="0.86" stop-color="#797979"/><stop offset="0.92" stop-color="#484848"/><stop offset="0.98" stop-color="#111"/><stop offset="1"/></linearGradient><linearGradient id="New_Gradient_Swatch_3-2" x1="242.86" y1="87.31" x2="242.86" y2="107.31" xlink:href="#New_Gradient_Swatch_3"/><linearGradient id="New_Gradient_Swatch_2-3" x1="132.34" y1="9.31" x2="132.34" y2="29.31" xlink:href="#New_Gradient_Swatch_2"/><linearGradient id="New_Gradient_Swatch_2-4" x1="169.02" y1="9.31" x2="169.02" y2="29.31" xlink:href="#New_Gradient_Swatch_2"/><linearGradient id="New_Gradient_Swatch_2-5" x1="205.71" y1="9.31" x2="205.71" y2="29.31" xlink:href="#New_Gradient_Swatch_2"/><linearGradient id="New_Gradient_Swatch_2-6" x1="242.39" y1="9.31" x2="242.39" y2="29.31" xlink:href="#New_Gradient_Swatch_2"/><linearGradient id="New_Gradient_Swatch_2-7" x1="132.34" y1="35.14" x2="132.34" y2="55.14" xlink:href="#New_Gradient_Swatch_2"/><linearGradient id="New_Gradient_Swatch_2-8" x1="169.02" y1="35.14" x2="169.02" y2="55.14" xlink:href="#New_Gradient_Swatch_2"/><linearGradient id="New_Gradient_Swatch_2-9" x1="205.71" y1="35.14" x2="205.71" y2="55.14" xlink:href="#New_Gradient_Swatch_2"/><linearGradient id="New_Gradient_Swatch_2-10" x1="242.39" y1="35.14" x2="242.39" y2="55.14" xlink:href="#New_Gradient_Swatch_2"/><linearGradient id="New_Gradient_Swatch_2-11" x1="132.34" y1="61.47" x2="132.34" y2="81.47" xlink:href="#New_Gradient_Swatch_2"/><linearGradient id="New_Gradient_Swatch_2-12" x1="169.02" y1="61.47" x2="169.02" y2="81.47" xlink:href="#New_Gradient_Swatch_2"/><linearGradient id="New_Gradient_Swatch_3-3" x1="205.71" y1="61.47" x2="205.71" y2="81.47" xlink:href="#New_Gradient_Swatch_3"/><linearGradient id="New_Gradient_Swatch_3-4" x1="242.39" y1="60.47" x2="242.39" y2="80.47" xlink:href="#New_Gradient_Swatch_3"/></defs><title>fescue_graph</title><g class="cls-1"><g id="Background"><rect class="cls-2" width="273" height="117.37" rx="12" ry="12"/></g><g id="Fescue"><rect class="cls-3" x="114.47" y="88.31" width="36.68" height="20" rx="10" ry="10"/><rect class="cls-4" x="151.15" y="88.31" width="36.68" height="20" rx="10" ry="10"/><rect class="cls-5" x="187.83" y="88.31" width="36.68" height="20" rx="10" ry="10"/><rect class="cls-6" x="224.52" y="87.31" width="36.68" height="20" rx="10" ry="10"/><rect class="cls-7" x="114" y="9.31" width="36.68" height="20" rx="10" ry="10"/><rect class="cls-8" x="150.68" y="9.31" width="36.68" height="20" rx="10" ry="10"/><rect class="cls-9" x="187.37" y="9.31" width="36.68" height="20" rx="10" ry="10"/><rect class="cls-10" x="224.05" y="9.31" width="36.68" height="20" rx="10" ry="10"/><rect class="cls-11" x="114" y="35.14" width="36.68" height="20" rx="10" ry="10"/><rect class="cls-12" x="150.68" y="35.14" width="36.68" height="20" rx="10" ry="10"/><rect class="cls-13" x="187.37" y="35.14" width="36.68" height="20" rx="10" ry="10"/><rect class="cls-14" x="224.05" y="35.14" width="36.68" height="20" rx="10" ry="10"/><rect class="cls-15" x="114" y="61.47" width="36.68" height="20" rx="10" ry="10"/><rect class="cls-16" x="150.68" y="61.47" width="36.68" height="20" rx="10" ry="10"/><rect class="cls-17" x="187.37" y="61.47" width="36.68" height="20" rx="10" ry="10"/><rect class="cls-18" x="224.05" y="60.47" width="36.68" height="20" rx="10" ry="10"/></g><g id="Words"><text class="cls-19" transform="translate(12.47 101.31) scale(1.03 1)">Initial Cost</text><text class="cls-19" transform="translate(12 74.47) scale(1.03 1)">Du<tspan class="cls-20" x="14.8" y="0">r</tspan><tspan x="19.24" y="0">ability</tspan></text><text class="cls-19" transform="translate(12 49.17) scale(1.03 1)">Maintenance</text><text class="cls-19" transform="translate(12 24.31) scale(1.03 1)">Shade<tspan class="cls-21" x="34.68" y="0"> </tspan><tspan class="cls-22" x="37.5" y="0">T</tspan><tspan x="43.67" y="0">ole</tspan><tspan class="cls-20" x="60.87" y="0">r</tspan><tspan x="65.3" y="0">ance</tspan></text></g></g></svg>