<svg xmlns="http://www.w3.org/2000/svg" viewBox="0 0 1088.33 896"><defs><style>.cls-1{fill:#146635;}.cls-2{fill:#fff;}</style></defs><title>Asset 1</title><g id="Layer_2" data-name="Layer 2"><g id="Layer_2-2" data-name="Layer 2"><circle class="cls-1" cx="448" cy="447" r="248"/><path d="M447,758h0A310.48,310.48,0,1,1,667.2,667.2,311.77,311.77,0,0,1,621,705.35H814.75A445.94,445.94,0,0,0,896,448C896,200.58,695.42,0,448,0S0,200.58,0,448C0,695.09,200,895.45,447,896H995.33l93-138Z"/><path class="cls-2" d="M74.84,642.82,66.5,626l46.81-51.18q3.72-4.12,4.09-6.08T115.83,563l10.38-5.13,17.56,35.51-10.38,5.13-1.12-2.13a8.89,8.89,0,0,0-2.83-3.76,2.52,2.52,0,0,0-2.5-.24,18.25,18.25,0,0,0-3.48,3L117.74,601,129,623.77l9-.94a14.16,14.16,0,0,0,3.6-.71,2.56,2.56,0,0,0,1.25-1.39,4.18,4.18,0,0,0,0-2.52A36.51,36.51,0,0,0,140.6,613L151,607.91,165.35,637,155,642.1a14,14,0,0,0-2.51-3.85,5.7,5.7,0,0,0-2.5-1.41,14.92,14.92,0,0,0-4.52-.07Zm41.52-17.73L109,610.19,92,627.64Z"/><path class="cls-2" d="M40.6,562.1l-7.39-43.28q-2.52-14.74.67-24.24a35.1,35.1,0,0,1,11.47-16.25q8.29-6.75,21.12-8.94a46,46,0,0,1,16.42-.09,39,39,0,0,1,14,5.68,37.29,37.29,0,0,1,10.4,9.74A50.54,50.54,0,0,1,113,496.89a86.76,86.76,0,0,1,3.62,13L123.14,548l-11.42,2-.49-2.86q-.62-3.63-1.4-4.66a4.46,4.46,0,0,0-2.33-1.5,15.85,15.85,0,0,0-5,.36L57.42,549a14.62,14.62,0,0,0-4.79,1.34,3.45,3.45,0,0,0-1.37,1.95,13.73,13.73,0,0,0,.28,5l.49,2.86Zm8-32.48,51.4-8.78a10,10,0,0,0,3.15-.84,2.5,2.5,0,0,0,1-1.6,17.71,17.71,0,0,0-.43-4.46q-1.66-9.7-5.58-14.66A22.1,22.1,0,0,0,87,492.07a34.73,34.73,0,0,0-16.32-.68,36.77,36.77,0,0,0-15.14,5.84q-6.13,4.31-8.06,9.44t-.44,13.84Z"/><path class="cls-2" d="M25.24,462.6,28,422.9l11.56.8L39.46,425a23.11,23.11,0,0,0,0,4.84,3.33,3.33,0,0,0,1.13,1.85,3.27,3.27,0,0,0,1.93.86,20.37,20.37,0,0,0,5.24-1l42.62-11.92L48.77,400.86a16.09,16.09,0,0,0-4.3-1.44,2.8,2.8,0,0,0-2.53.94q-.86,1.05-1.11,4.71l-.18,2.58-11.56-.8,2.24-32.33,11.56.8q-.28,4,.53,5.45,1.23,2.19,6.42,4.66l62.63,29.48-1.3,18.8-66.55,21a25,25,0,0,0-5.14,2.05A5.43,5.43,0,0,0,37.64,459a12.18,12.18,0,0,0-.85,4.42Z"/><path class="cls-2" d="M43.27,332.33l5.55-18L118,309.44q5.54-.42,7.15-1.59T128,302.6L139,306l-11.7,37.85-11.07-3.42.65-2.31a8.88,8.88,0,0,0,.53-4.67,2.52,2.52,0,0,0-1.64-1.89,18.25,18.25,0,0,0-4.58-.22l-8,.13L95.69,355.8l7.16,5.5a14.18,14.18,0,0,0,3.1,2,2.56,2.56,0,0,0,1.87-.15,4.17,4.17,0,0,0,1.75-1.81,36.43,36.43,0,0,0,1.9-5.32l11.07,3.42-9.57,31-11.07-3.42a14,14,0,0,0,.83-4.52,5.7,5.7,0,0,0-.85-2.74,14.94,14.94,0,0,0-3.23-3.17ZM85.59,348l4.91-15.89-24.36.95Z"/><path class="cls-2" d="M74.11,250.56,92.8,222.19l54.31,6.37-25-16.44a16,16,0,0,0-4.24-2.29,3.91,3.91,0,0,0-2.57.25,9.17,9.17,0,0,0-2.66,3l-2.25,3.41-9.67-6.37,19-28.82,9.67,6.37-2.1,3.19a9.2,9.2,0,0,0-1.7,3.78,3.62,3.62,0,0,0,.57,2.41,15.68,15.68,0,0,0,3.85,3.11l54.08,35.62-9.47,14.39-68.63-8,36,23.74a15,15,0,0,0,4.21,2.23,3.33,3.33,0,0,0,2.24-.45,9.54,9.54,0,0,0,2.72-3l2.2-3.34,9.67,6.37-19,28.92-9.67-6.37,2-3a11,11,0,0,0,1.82-3.69,3.79,3.79,0,0,0-.51-2.44,8.48,8.48,0,0,0-2.8-2.63l-40.1-26.41A10.24,10.24,0,0,0,91,250.34a3.94,3.94,0,0,0-2.44.32,7.39,7.39,0,0,0-2.35,2.53l-2.46,3.74Z"/><path class="cls-2" d="M177.88,124.33l6.22-5.82,26.55,16.33-5.93,10q-11.42-4-18.09-3.95-9.22.17-15,5.62a19.86,19.86,0,0,0-5.73,9.81,22.17,22.17,0,0,0,.65,12.46,34.31,34.31,0,0,0,7.92,12.81q8.82,9.42,20.15,11.55T214,187.73a25.26,25.26,0,0,0,7.11-12.17,47.22,47.22,0,0,0,1.06-19.33l11.51-1.32q1.84,15.22-.31,23.89a46.42,46.42,0,0,1-13.69,23.11,41.13,41.13,0,0,1-19.48,10.48,41.62,41.62,0,0,1-22-1.15,44.91,44.91,0,0,1-19.38-12.36,43.89,43.89,0,0,1-10.91-19.76,40.08,40.08,0,0,1,.51-21.57,44.91,44.91,0,0,1,30.51-29.24Z"/><path class="cls-2" d="M211.06,97.79,272.32,64.1l21.12,18.59-7.64,8.65a35.72,35.72,0,0,0-10.69-6,18,18,0,0,0-9.68-.67,37.75,37.75,0,0,0-9.75,3.89l-11.2,6.16L254.55,113l3.68-2q4.15-2.28,5.27-3.69a4.42,4.42,0,0,0,1-3q-.08-1.64-2.19-5.47L260.81,96l9.36-5.15,17.09,31.08-9.36,5.15-1.74-3.17a12.37,12.37,0,0,0-3.35-4.29,4.61,4.61,0,0,0-3.18-.87q-1.61.2-6.13,2.68l-3.31,1.82,9.28,16.87a12.87,12.87,0,0,0,2.06,3.12,2.07,2.07,0,0,0,1.52.33,12.08,12.08,0,0,0,3.46-1.49l6.16-3.39a34.41,34.41,0,0,0,10.54-8.38,25.37,25.37,0,0,0,4.93-11,35.72,35.72,0,0,0-.06-13.63l11.43-2,5.37,32.57-63.47,34.91L245.82,161l1.84-1a17.22,17.22,0,0,0,4.65-3.25,3.64,3.64,0,0,0,.78-2.82,23.83,23.83,0,0,0-2.2-4.61l-22-40a14.48,14.48,0,0,0-2.79-4,3.49,3.49,0,0,0-2.22-.73,10.48,10.48,0,0,0-4,1.55l-3.26,1.79Z"/><path class="cls-2" d="M476.56,27.36l6.21,28.33-11.33,2.78q-5.21-10.24-12.12-15.16a26.84,26.84,0,0,0-14.87-5.19q-5.15-.18-8.19,1.82t-3.13,4.58a7.42,7.42,0,0,0,2.51,5.56q2.55,2.62,9.56,4.85l15.91,5.25Q474.35,64.48,479.83,71a22,22,0,0,1,5.11,15.15q-.38,10.87-9.28,18.06-10,7.94-24.28,7.44a41.65,41.65,0,0,1-12.18-2.14,45.33,45.33,0,0,1-11.43-6.14l-2.85,5.91L416,109l-4.79-32.66L422.49,74a39.43,39.43,0,0,0,11.74,17,29,29,0,0,0,18.15,7.28,21.05,21.05,0,0,0,7.51-.88,9.65,9.65,0,0,0,4.58-3,7,7,0,0,0,1.65-4.15,7.54,7.54,0,0,0-3.26-6.3q-3.45-2.7-12.18-5.53l-13.84-4.57a63.89,63.89,0,0,1-8.49-3.69,31.81,31.81,0,0,1-8.15-5.48A22.32,22.32,0,0,1,414,48.58a21.9,21.9,0,0,1,4.12-12.14,26.13,26.13,0,0,1,11.42-8.7,38.13,38.13,0,0,1,16.53-2.9,35.49,35.49,0,0,1,19.42,6.33L468,27.05Z"/><path class="cls-2" d="M554.12,42q19.11,5.64,27.51,20.76t3,33.37a45,45,0,0,1-11.84,20.16,38.91,38.91,0,0,1-19.26,10.24q-11,2.34-24.52-1.64-17.79-5.25-26.24-18.39-10.22-15.84-4.39-35.59,5.42-18.36,20.87-26.5T554.12,42Zm-3.54,12.85A18.35,18.35,0,0,0,534,57.4Q524.65,64,520.62,77.68t0,23.46a19.56,19.56,0,0,0,28.9,8.53q8.79-6.23,12.8-19.81,2.82-9.55,2-16.87a22.5,22.5,0,0,0-4.52-11.91A18.2,18.2,0,0,0,550.57,54.86Z"/><path class="cls-2" d="M620.4,67l37.23,23.27q12.68,7.93,17.65,16.63a35.11,35.11,0,0,1,4.5,19.38Q679.3,137,672.4,148a46,46,0,0,1-10.86,12.32,39,39,0,0,1-13.57,6.7,37.31,37.31,0,0,1-14.19,1.29,50.56,50.56,0,0,1-12.85-3.86,86.77,86.77,0,0,1-12.11-5.95L576,138l6.14-9.82,2.46,1.54q3.12,2,4.41,2.05a4.46,4.46,0,0,0,2.67-.74,15.81,15.81,0,0,0,3.05-4L619,88.31a14.62,14.62,0,0,0,2.19-4.47,3.45,3.45,0,0,0-.54-2.32,13.75,13.75,0,0,0-3.92-3.12l-2.46-1.54Zm18.91,27.61-27.64,44.22a9.92,9.92,0,0,0-1.47,2.91,2.5,2.5,0,0,0,.54,1.79,17.71,17.71,0,0,0,3.62,2.65q8.34,5.22,14.66,5.59a22.11,22.11,0,0,0,12.77-3.5,34.75,34.75,0,0,0,11.37-11.73,36.76,36.76,0,0,0,5.71-15.19q.86-7.44-1.69-12.3t-10-9.54Z"/><path class="cls-2" d="M818.58,244.87,798.76,266,790,258.28q5.49-10.1,5.62-18.57a26.84,26.84,0,0,0-4.15-15.19q-2.77-4.35-6.14-5.72t-5.54,0a7.43,7.43,0,0,0-3.16,5.22q-.71,3.58,1.42,10.62l4.69,16.08q3.95,13.35,1.64,21.58a22,22,0,0,1-9.58,12.79q-9.17,5.84-20.14,2.58-12.18-3.7-19.89-15.79a41.64,41.64,0,0,1-5.14-11.25,45.32,45.32,0,0,1-1.42-12.9l-6.48,1-4.8-7.54,24.19-22.46,8.31,8a39.42,39.42,0,0,0-7.32,19.29,29,29,0,0,0,4.29,19.08,21.07,21.07,0,0,0,5,5.69,9.66,9.66,0,0,0,5.08,2.06,7,7,0,0,0,4.35-1,7.54,7.54,0,0,0,3.34-6.26q.27-4.37-2.34-13.17l-4.08-14a64,64,0,0,1-1.77-9.08,31.81,31.81,0,0,1-.1-9.82,22.31,22.31,0,0,1,9.74-14.21A21.89,21.89,0,0,1,778,201.88a26.14,26.14,0,0,1,13.64,4.48,38.13,38.13,0,0,1,11.76,12,35.49,35.49,0,0,1,5.79,19.58l4.8-.28Z"/><path class="cls-2" d="M844.16,302.92l6.08,17.8-53,44.69q-4.23,3.6-4.85,5.49t.81,5.91l-11,3.75L769.4,343.06l11-3.75.83,2.25a8.88,8.88,0,0,0,2.32,4.09,2.52,2.52,0,0,0,2.44.56,18.22,18.22,0,0,0,3.83-2.52l6.4-4.83L788,314.79l-9-.23a14.15,14.15,0,0,0-3.66.24,2.56,2.56,0,0,0-1.42,1.22,4.18,4.18,0,0,0-.35,2.5,36.47,36.47,0,0,0,1.6,5.42l-11,3.75L753.65,297l11-3.75a14,14,0,0,0,2,4.14,5.7,5.7,0,0,0,2.3,1.72,14.92,14.92,0,0,0,4.48.66Zm-43.46,12.2,5.38,15.73,19.14-15.1Z"/><path class="cls-2" d="M866.64,386.36l2.62,40.79-11.56.74-.23-3.57a13.82,13.82,0,0,0-.54-3.73,4,4,0,0,0-2-2,8.79,8.79,0,0,0-4-.4l-47.74,3.07a13.07,13.07,0,0,0-3.52.5,2,2,0,0,0-1,1.18,8.86,8.86,0,0,0-.18,3.26q.52,8,2.93,12.77a24,24,0,0,0,7.3,8.37,40.28,40.28,0,0,0,13,5.93l-3.06,11.26-31.61-9-4.1-63.79,11.56-.74.26,4a8.15,8.15,0,0,0,.9,3.65,4.12,4.12,0,0,0,1.88,1.7,9.31,9.31,0,0,0,3.9.32l47.32-3a11.86,11.86,0,0,0,4.28-.84A3.89,3.89,0,0,0,855,395a7.43,7.43,0,0,0,.38-3.52l-.28-4.41Z"/><path class="cls-2" d="M870.08,483.83l-12.35,68.82L830,557.37,828.07,546a35.74,35.74,0,0,0,11.42-4.51,18,18,0,0,0,6.61-7.11,37.69,37.69,0,0,0,3.11-10l2.26-12.58-20.56-3.69-.74,4.13q-.84,4.67-.45,6.41a4.42,4.42,0,0,0,1.71,2.71q1.32,1,5.63,1.74l3.13.56-1.89,10.52-34.91-6.26,1.89-10.52,3.56.64a12.39,12.39,0,0,0,5.44.09,4.62,4.62,0,0,0,2.68-1.93q.86-1.37,1.77-6.45l.67-3.72-19-3.4a12.83,12.83,0,0,0-3.72-.36,2.07,2.07,0,0,0-1.21,1,12.08,12.08,0,0,0-1,3.63l-1.24,6.91a34.39,34.39,0,0,0-.12,13.46A25.36,25.36,0,0,0,798.6,538a35.72,35.72,0,0,0,10.63,8.53l-5.66,10.12-28.7-16.32L787.67,469l11.4,2-.37,2.07a17.2,17.2,0,0,0-.41,5.66,3.64,3.64,0,0,0,1.71,2.38,23.81,23.81,0,0,0,5,1.2l44.9,8.06a14.53,14.53,0,0,0,4.88.36,3.5,3.5,0,0,0,2-1.26,10.48,10.48,0,0,0,1.31-4.09l.66-3.66Z"/><path class="cls-2" d="M820.94,646.8l-28.55-5.06,1.75-11.53q11.46-.92,18.63-5.43A26.84,26.84,0,0,0,823.23,613q2.13-4.69,1.44-8.26t-3-4.64a7.43,7.43,0,0,0-6.09.2q-3.39,1.36-8.12,7L796.49,620q-9,10.6-17.19,13.15a22,22,0,0,1-16-1q-9.9-4.5-13.16-15.47-3.55-12.23,2.38-25.29a41.63,41.63,0,0,1,6.62-10.44,45.37,45.37,0,0,1,10-8.23l-4.37-4.89,3.7-8.14,32,8L798.39,579a39.42,39.42,0,0,0-20.16,4.39,29,29,0,0,0-13.65,14,21.06,21.06,0,0,0-2.05,7.27,9.66,9.66,0,0,0,1,5.39,7,7,0,0,0,3.2,3.1,7.54,7.54,0,0,0,7.07-.61q3.81-2.16,9.76-9.15l9.5-11.06a63.89,63.89,0,0,1,6.65-6.44,31.79,31.79,0,0,1,8.18-5.45,22.31,22.31,0,0,1,17.22.41,21.9,21.9,0,0,1,9.65,8.44,26.14,26.14,0,0,1,3.69,13.87,38.12,38.12,0,0,1-3.62,16.39,35.48,35.48,0,0,1-13.25,15.54l2.86,3.87Z"/><path class="cls-2" d="M294.27,312.78h11.14l1.18,5.57h66.36l1.43-5.57h11.23l14.6,58-15.7,7.7Q379.28,364,377,359.59A44.58,44.58,0,0,0,366.7,346q-4.39-3.79-8.7-3.79a2.91,2.91,0,0,0-2.79,1.36q-.76,1.36-.76,6.22v95a75,75,0,0,0,.42,10.55,7.59,7.59,0,0,0,1.44,3.38,4.93,4.93,0,0,0,2.8,1.66,60.63,60.63,0,0,0,9.51.42v22.87H311.15V460.81h3.48q5.77,0,7.39-1a6.35,6.35,0,0,0,2.46-3.55q.85-2.55.85-10.61V348.45q0-4.15-.67-5.21t-2.87-1.07q-4.39,0-9.79,4.62a41.18,41.18,0,0,0-9.62,13q-1.69,3.32-7.17,18.61l-15.45-7.7Z"/><path class="cls-2" d="M457.34,515.5h57.49v23.11h-4.31q-4.22,0-5.78,1.07a6.28,6.28,0,0,0-2.32,3.38q-.76,2.31-.76,8.83v51.79H484.37l-4.47-11.85a58.25,58.25,0,0,1-16.45,11,44.31,44.31,0,0,1-17.71,3.67q-16.11,0-29.36-11t-21-30.81q-7.72-19.79-7.72-44.32,0-24.29,7.63-43.49t21.34-30.28q13.71-11.08,29.74-11.08a45.37,45.37,0,0,1,15.48,2.79,42.79,42.79,0,0,1,13.2,7.41l3.12-7.35H490l10.63,54.75-15.53,7.11q-7.94-18-12.54-24.53A36.43,36.43,0,0,0,462,465.49a22.09,22.09,0,0,0-11.61-3.67q-8,0-15,6.52t-11,19q-4.05,12.51-4.05,30.28,0,19.55,4.43,33.89t11.61,21.27q7.17,6.93,15.79,6.93a21.23,21.23,0,0,0,11.52-3.44q5.44-3.44,7.47-7.7t2-11.5v-6q0-6.28-.59-7.94a7.18,7.18,0,0,0-2.49-3.44q-1.56-1.07-6.12-1.07h-6.67Z"/><path class="cls-2" d="M606.13,318.35l10.13,55.46-15.79,6.28q-7.84-19.85-17.78-29.07t-21.16-9.21q-7.25,0-11.42,4.15a12.79,12.79,0,0,0-4.17,9.25,17.45,17.45,0,0,0,3.8,10.8q3.71,5,13.68,8.9L586,384.17q18.82,7.59,26.84,20.16t7.94,29.53q0,21.47-12.16,36.29-13.59,16.37-33.77,16.37a43.11,43.11,0,0,1-17.22-3.38q-7.85-3.38-16.38-11.32l-3.71,11.85H525l-8.36-64.12,15.79-5.33q5.57,19.55,17.35,32.65T575.65,460a22,22,0,0,0,10.51-2.25,14.86,14.86,0,0,0,6.29-6.28,17.68,17.68,0,0,0,2.11-8.3,17,17,0,0,0-4.9-12.2q-5-5.09-17.39-10.07l-19.68-8a76.8,76.8,0,0,1-12.11-6.7,46,46,0,0,1-11.73-10.25A45.18,45.18,0,0,1,522,382.18a59,59,0,0,1,2.49-41.84,43,43,0,0,1,15.62-18,41.05,41.05,0,0,1,23.09-6.88q15.28,0,27.6,11.14l3.29-8.3Z"/></g></g></svg>